<svg version="1.1" id="Layer_1" xmlns="http://www.w3.org/2000/svg" xmlns:xlink="http://www.w3.org/1999/xlink" x="0px" y="0px"
	 width="100%" viewBox="0 0 1000 1000" enable-background="new 0 0 1000 1000" xml:space="preserve">
<path fill="#FFFFFF" opacity="1.000000" stroke="none" 
	d="
M467.000000,1001.000000 
	C311.683105,1001.000000 156.366180,1001.000000 1.024637,1001.000000 
	C1.024637,667.718323 1.024637,334.436676 1.024637,1.077507 
	C334.246399,1.077507 667.492859,1.077507 1000.869629,1.077507 
	C1000.869629,334.211121 1000.869629,667.422302 1000.869629,1001.000000 
	C844.972168,1001.000000 688.944031,1001.000000 532.605835,1000.605469 
	C535.025452,999.807434 537.747681,999.342224 540.486206,999.010864 
	C554.391663,997.328247 568.453552,996.473022 582.174316,993.837219 
	C603.500366,989.740417 624.860596,985.370361 645.721863,979.418152 
	C672.389832,971.809204 698.225342,961.630676 722.821777,948.613037 
	C733.764526,942.821594 745.036743,937.512695 755.419128,930.833984 
	C772.106384,920.099426 788.429932,908.751038 804.426514,897.007263 
	C815.707520,888.725342 826.813782,880.005249 836.882690,870.321045 
	C850.952393,856.789124 864.511719,842.635437 877.303406,827.892273 
	C889.207397,814.172424 900.339111,799.701965 910.884094,784.901672 
	C928.371460,760.357788 942.640259,733.892151 954.945007,706.392639 
	C966.893738,679.688782 976.801453,652.247986 983.023438,623.623718 
	C986.759705,606.434570 990.296265,589.159546 992.832520,571.764160 
	C995.282532,554.960327 997.304932,537.977478 997.739258,521.027710 
	C998.216919,502.387604 997.215942,483.655090 995.837463,465.038452 
	C994.624756,448.659882 992.861206,432.221375 989.780457,416.107697 
	C986.072144,396.711334 981.163757,377.507385 975.947693,358.446472 
	C970.485046,338.484650 963.403625,319.006866 954.076660,300.482758 
	C944.615845,281.692841 935.469360,262.673615 924.730591,244.620087 
	C915.590820,229.254547 904.732178,214.857254 893.980347,200.521820 
	C885.282654,188.925217 876.102966,177.601791 866.239441,166.991745 
	C855.631226,155.580521 844.229065,144.864853 832.702637,134.362289 
	C822.442810,125.013809 812.171021,115.453613 800.782532,107.617538 
	C780.113220,93.395592 759.235535,79.245750 737.275146,67.197701 
	C716.364990,55.725845 694.445801,45.678913 672.100769,37.333931 
	C638.731506,24.871899 604.265625,15.804858 568.654785,12.018318 
	C551.749878,10.220793 534.849915,8.071019 517.890137,7.195272 
	C505.190002,6.539477 492.367706,7.228299 479.653809,8.103245 
	C461.378357,9.360930 443.089600,10.843084 424.925629,13.162469 
	C411.820953,14.835830 398.828979,17.672888 385.931091,20.622282 
	C363.701599,25.705559 342.039490,32.650581 320.747986,40.899410 
	C295.961121,50.502434 271.976746,61.815788 249.315582,75.553619 
	C231.546173,86.325928 214.514557,98.429710 197.847610,110.869720 
	C184.645859,120.723343 172.076004,131.531570 159.969803,142.721130 
	C138.910095,162.186279 119.441704,183.287003 102.999954,206.787979 
	C88.893494,226.951004 75.144539,247.536758 63.339100,269.086853 
	C52.273354,289.286713 43.243759,310.708740 34.679596,332.137054 
	C28.329535,348.025482 23.101620,364.543304 19.286766,381.218384 
	C14.496622,402.156494 11.247610,423.481049 8.124905,444.754974 
	C6.036866,458.980042 4.433894,473.394379 4.224828,487.747467 
	C3.960371,505.903381 5.011601,524.102539 6.109059,542.245972 
	C6.867002,554.776428 8.227582,567.310547 10.116378,579.721680 
	C12.130652,592.957275 14.787532,606.115784 17.690245,619.191040 
	C23.054203,643.352966 30.110785,667.100037 40.197029,689.675415 
	C50.273331,712.228638 60.873383,734.668823 73.085999,756.109192 
	C83.271606,773.991028 95.677933,790.683105 107.939606,807.282471 
	C117.137123,819.733765 127.078171,831.762329 137.756866,842.959961 
	C150.306763,856.119690 163.817123,868.392273 177.289932,880.632324 
	C185.231461,887.847168 193.512543,894.827515 202.337708,900.900757 
	C219.581589,912.767456 237.129532,924.219910 254.889664,935.302002 
	C278.690704,950.153503 304.338776,961.335266 330.620178,970.896851 
	C359.685242,981.471191 389.385590,989.934204 420.161499,994.014893 
	C433.553741,995.790588 446.982391,997.291565 460.376770,999.052307 
	C462.630890,999.348633 464.794556,1000.333374 467.000000,1001.000000 
z"/>
<path fill="#000000" opacity="1.000000" stroke="none" 
	d="
M467.399994,1001.000000 
	C464.794556,1000.333374 462.630890,999.348633 460.376770,999.052307 
	C446.982391,997.291565 433.553741,995.790588 420.161499,994.014893 
	C389.385590,989.934204 359.685242,981.471191 330.620178,970.896851 
	C304.338776,961.335266 278.690704,950.153503 254.889664,935.302002 
	C237.129532,924.219910 219.581589,912.767456 202.337708,900.900757 
	C193.512543,894.827515 185.231461,887.847168 177.289932,880.632324 
	C163.817123,868.392273 150.306763,856.119690 137.756866,842.959961 
	C127.078171,831.762329 117.137123,819.733765 107.939606,807.282471 
	C95.677933,790.683105 83.271606,773.991028 73.085999,756.109192 
	C60.873383,734.668823 50.273331,712.228638 40.197029,689.675415 
	C30.110785,667.100037 23.054203,643.352966 17.690245,619.191040 
	C14.787532,606.115784 12.130652,592.957275 10.116378,579.721680 
	C8.227582,567.310547 6.867002,554.776428 6.109059,542.245972 
	C5.011601,524.102539 3.960371,505.903381 4.224828,487.747467 
	C4.433894,473.394379 6.036866,458.980042 8.124905,444.754974 
	C11.247610,423.481049 14.496622,402.156494 19.286766,381.218384 
	C23.101620,364.543304 28.329535,348.025482 34.679596,332.137054 
	C43.243759,310.708740 52.273354,289.286713 63.339100,269.086853 
	C75.144539,247.536758 88.893494,226.951004 102.999954,206.787979 
	C119.441704,183.287003 138.910095,162.186279 159.969803,142.721130 
	C172.076004,131.531570 184.645859,120.723343 197.847610,110.869720 
	C214.514557,98.429710 231.546173,86.325928 249.315582,75.553619 
	C271.976746,61.815788 295.961121,50.502434 320.747986,40.899410 
	C342.039490,32.650581 363.701599,25.705559 385.931091,20.622282 
	C398.828979,17.672888 411.820953,14.835830 424.925629,13.162469 
	C443.089600,10.843084 461.378357,9.360930 479.653809,8.103245 
	C492.367706,7.228299 505.190002,6.539477 517.890137,7.195272 
	C534.849915,8.071019 551.749878,10.220793 568.654785,12.018318 
	C604.265625,15.804858 638.731506,24.871899 672.100769,37.333931 
	C694.445801,45.678913 716.364990,55.725845 737.275146,67.197701 
	C759.235535,79.245750 780.113220,93.395592 800.782532,107.617538 
	C812.171021,115.453613 822.442810,125.013809 832.702637,134.362289 
	C844.229065,144.864853 855.631226,155.580521 866.239441,166.991745 
	C876.102966,177.601791 885.282654,188.925217 893.980347,200.521820 
	C904.732178,214.857254 915.590820,229.254547 924.730591,244.620087 
	C935.469360,262.673615 944.615845,281.692841 954.076660,300.482758 
	C963.403625,319.006866 970.485046,338.484650 975.947693,358.446472 
	C981.163757,377.507385 986.072144,396.711334 989.780457,416.107697 
	C992.861206,432.221375 994.624756,448.659882 995.837463,465.038452 
	C997.215942,483.655090 998.216919,502.387604 997.739258,521.027710 
	C997.304932,537.977478 995.282532,554.960327 992.832520,571.764160 
	C990.296265,589.159546 986.759705,606.434570 983.023438,623.623718 
	C976.801453,652.247986 966.893738,679.688782 954.945007,706.392639 
	C942.640259,733.892151 928.371460,760.357788 910.884094,784.901672 
	C900.339111,799.701965 889.207397,814.172424 877.303406,827.892273 
	C864.511719,842.635437 850.952393,856.789124 836.882690,870.321045 
	C826.813782,880.005249 815.707520,888.725342 804.426514,897.007263 
	C788.429932,908.751038 772.106384,920.099426 755.419128,930.833984 
	C745.036743,937.512695 733.764526,942.821594 722.821777,948.613037 
	C698.225342,961.630676 672.389832,971.809204 645.721863,979.418152 
	C624.860596,985.370361 603.500366,989.740417 582.174316,993.837219 
	C568.453552,996.473022 554.391663,997.328247 540.486206,999.010864 
	C537.747681,999.342224 535.025452,999.807434 532.147827,1000.605469 
	C532.000000,1001.000000 531.500000,1001.000000 531.123901,1000.622925 
	C528.831909,1000.497253 526.915955,1000.748657 525.000000,1001.000000 
	C509.312439,1001.000000 493.624878,1001.000000 477.342590,1000.622925 
	C474.831879,1000.497253 472.915955,1000.748657 471.000000,1001.000000 
	C469.933319,1001.000000 468.866669,1001.000000 467.399994,1001.000000 
M45.469193,318.034241 
	C43.300602,323.643341 40.997772,329.204712 38.985310,334.869293 
	C26.349947,370.434540 16.691685,406.729034 13.028091,444.405365 
	C11.404357,461.103821 9.561275,477.839661 9.217717,494.587219 
	C8.882437,510.931305 10.123831,527.324097 11.072166,543.672302 
	C11.689872,554.320923 12.292943,565.060120 14.191437,575.524902 
	C17.617338,594.408997 21.588343,613.219604 26.101624,631.874634 
	C32.042336,656.429749 40.478249,680.263367 51.219143,703.082642 
	C60.657497,723.134583 70.969963,742.861572 82.245407,761.934509 
	C90.936234,776.635437 101.330681,790.394714 111.687294,804.025940 
	C121.011414,816.298279 130.781952,828.324768 141.302429,839.574158 
	C159.824066,859.378845 179.837738,877.596130 201.432709,894.136047 
	C222.875641,910.559265 245.271973,925.450256 269.186310,937.870422 
	C285.664459,946.428589 302.563721,954.376526 319.849976,961.123596 
	C338.290771,968.321228 357.209778,974.496338 376.282867,979.817261 
	C397.636414,985.774414 419.401062,990.217590 441.598511,992.058899 
	C456.168976,993.267517 470.709808,995.566406 485.286957,995.776062 
	C503.638031,996.039917 522.042175,995.106384 540.367554,993.864990 
	C554.565063,992.903320 568.862549,991.599915 582.784302,988.800354 
	C605.398376,984.252869 627.949219,979.087830 650.127136,972.778687 
	C665.395752,968.435059 680.339478,962.483826 694.798279,955.872864 
	C714.359802,946.928772 733.852112,937.574768 752.377441,926.698853 
	C769.492310,916.651001 785.586975,904.761963 801.575073,892.932495 
	C813.425964,884.164185 824.891052,874.729675 835.634155,864.640137 
	C855.711121,845.784729 874.402527,825.626648 891.104370,803.596008 
	C907.014648,782.609558 921.546631,760.811401 934.061401,737.657959 
	C948.372925,711.180481 960.030273,683.552612 969.445129,654.987854 
	C972.291504,646.351929 974.779419,637.574890 976.952271,628.744507 
	C982.253113,607.202271 987.247986,585.589722 989.049561,563.388611 
	C990.312683,547.822815 992.540771,532.278625 992.777100,516.701111 
	C993.057861,498.184357 991.893250,479.630249 990.910095,461.115936 
	C990.371277,450.967957 989.269958,440.816010 987.774841,430.762115 
	C986.267090,420.623413 984.303345,410.521301 981.919617,400.551361 
	C978.331299,385.543274 975.065369,370.370056 970.092102,355.803131 
	C963.583984,336.740540 956.293701,317.859894 947.952087,299.532654 
	C939.858521,281.750549 930.775085,264.306885 920.706421,247.568741 
	C911.476868,232.225723 900.726868,217.740906 889.945312,203.405487 
	C881.080383,191.618530 871.774475,180.043579 861.597961,169.393234 
	C849.244385,156.464462 836.233521,144.065903 822.655212,132.432098 
	C808.511902,120.314163 793.752502,108.817680 778.553101,98.050964 
	C750.229736,77.987679 719.847534,61.410423 687.427002,48.967834 
	C667.415527,41.287666 647.206970,33.710365 626.498108,28.370691 
	C604.939880,22.812046 582.760315,19.404604 560.687744,16.185619 
	C544.608582,13.840689 528.277283,12.531991 512.030396,12.220172 
	C495.184784,11.896862 478.293610,13.121305 461.445190,14.072772 
	C450.796814,14.674109 440.056488,15.280979 429.594177,17.185814 
	C410.874603,20.594021 392.248993,24.628674 373.737976,29.046377 
	C345.311493,35.830441 318.204681,46.469372 291.735687,58.722935 
	C267.098541,70.128448 243.406693,83.366898 221.523422,99.389755 
	C202.639648,113.216377 184.163712,127.746346 166.664185,143.269363 
	C153.444687,154.995773 141.903717,168.644531 129.879608,181.681137 
	C113.049561,199.928345 98.740845,220.079315 85.397240,240.987869 
	C69.899757,265.271423 56.691006,290.687195 45.469193,318.034241 
z"/>
<path fill="#FFFFFF" opacity="1.000000" stroke="none" 
	d="
M471.428467,1001.000000 
	C472.915955,1000.748657 474.831879,1000.497253 476.873901,1000.622925 
	C475.285645,1001.000000 473.571289,1001.000000 471.428467,1001.000000 
z"/>
<path fill="#FFFFFF" opacity="1.000000" stroke="none" 
	d="
M525.428467,1001.000000 
	C526.915955,1000.748657 528.831909,1000.497253 530.873901,1000.622925 
	C529.285645,1001.000000 527.571289,1001.000000 525.428467,1001.000000 
z"/>
<path fill="#BF9365" opacity="1.000000" stroke="none" 
	d="
M45.695641,317.711548 
	C56.691006,290.687195 69.899757,265.271423 85.397240,240.987869 
	C98.740845,220.079315 113.049561,199.928345 129.879608,181.681137 
	C141.903717,168.644531 153.444687,154.995773 166.664185,143.269363 
	C184.163712,127.746346 202.639648,113.216377 221.523422,99.389755 
	C243.406693,83.366898 267.098541,70.128448 291.735687,58.722935 
	C318.204681,46.469372 345.311493,35.830441 373.737976,29.046377 
	C392.248993,24.628674 410.874603,20.594021 429.594177,17.185814 
	C440.056488,15.280979 450.796814,14.674109 461.445190,14.072772 
	C478.293610,13.121305 495.184784,11.896862 512.030396,12.220172 
	C528.277283,12.531991 544.608582,13.840689 560.687744,16.185619 
	C582.760315,19.404604 604.939880,22.812046 626.498108,28.370691 
	C647.206970,33.710365 667.415527,41.287666 687.427002,48.967834 
	C719.847534,61.410423 750.229736,77.987679 778.553101,98.050964 
	C793.752502,108.817680 808.511902,120.314163 822.655212,132.432098 
	C836.233521,144.065903 849.244385,156.464462 861.597961,169.393234 
	C871.774475,180.043579 881.080383,191.618530 889.945312,203.405487 
	C900.726868,217.740906 911.476868,232.225723 920.706421,247.568741 
	C930.775085,264.306885 939.858521,281.750549 947.952087,299.532654 
	C956.293701,317.859894 963.583984,336.740540 970.092102,355.803131 
	C975.065369,370.370056 978.331299,385.543274 981.919617,400.551361 
	C984.303345,410.521301 986.267090,420.623413 987.774841,430.762115 
	C989.269958,440.816010 990.371277,450.967957 990.910095,461.115936 
	C991.893250,479.630249 993.057861,498.184357 992.777100,516.701111 
	C992.540771,532.278625 990.312683,547.822815 989.049561,563.388611 
	C987.247986,585.589722 982.253113,607.202271 976.952271,628.744507 
	C974.779419,637.574890 972.291504,646.351929 969.445129,654.987854 
	C960.030273,683.552612 948.372925,711.180481 934.061401,737.657959 
	C921.546631,760.811401 907.014648,782.609558 891.104370,803.596008 
	C874.402527,825.626648 855.711121,845.784729 835.634155,864.640137 
	C824.891052,874.729675 813.425964,884.164185 801.575073,892.932495 
	C785.586975,904.761963 769.492310,916.651001 752.377441,926.698853 
	C733.852112,937.574768 714.359802,946.928772 694.798279,955.872864 
	C680.339478,962.483826 665.395752,968.435059 650.127136,972.778687 
	C627.949219,979.087830 605.398376,984.252869 582.784302,988.800354 
	C568.862549,991.599915 554.565063,992.903320 540.367554,993.864990 
	C522.042175,995.106384 503.638031,996.039917 485.286957,995.776062 
	C470.709808,995.566406 456.168976,993.267517 441.598511,992.058899 
	C419.401062,990.217590 397.636414,985.774414 376.282867,979.817261 
	C357.209778,974.496338 338.290771,968.321228 319.849976,961.123596 
	C302.563721,954.376526 285.664459,946.428589 269.186310,937.870422 
	C245.271973,925.450256 222.875641,910.559265 201.432709,894.136047 
	C179.837738,877.596130 159.824066,859.378845 141.302429,839.574158 
	C130.781952,828.324768 121.011414,816.298279 111.687294,804.025940 
	C101.330681,790.394714 90.936234,776.635437 82.245407,761.934509 
	C70.969963,742.861572 60.657497,723.134583 51.219143,703.082642 
	C40.478249,680.263367 32.042336,656.429749 26.101624,631.874634 
	C21.588343,613.219604 17.617338,594.408997 14.191437,575.524902 
	C12.292943,565.060120 11.689872,554.320923 11.072166,543.672302 
	C10.123831,527.324097 8.882437,510.931305 9.217717,494.587219 
	C9.561275,477.839661 11.404357,461.103821 13.028091,444.405365 
	C16.691685,406.729034 26.349947,370.434540 38.985310,334.869293 
	C40.997772,329.204712 43.300602,323.643341 45.695641,317.711548 
M288.441315,595.352417 
	C287.612274,596.895996 286.783203,598.439514 285.421326,600.363342 
	C284.932617,601.571472 284.443909,602.779602 283.384979,604.505005 
	C282.925079,608.076538 281.647583,611.786499 282.222412,615.182922 
	C282.868927,619.003052 281.763824,624.111694 287.471161,626.520630 
	C287.614380,627.347107 287.757568,628.173523 287.989471,629.699402 
	C289.987305,631.148254 291.985138,632.597046 294.454529,634.638245 
	C301.046173,637.516174 308.464996,635.180054 312.921906,629.314453 
	C317.276428,623.583557 317.066040,617.148071 317.184784,610.467529 
	C317.330750,602.254028 313.586914,595.317810 305.531281,591.395264 
	C299.103027,588.377197 293.854156,590.811829 288.997559,595.000000 
	C288.997559,595.000000 288.984009,594.977234 288.441315,595.352417 
M703.203796,907.818542 
	C706.410278,913.753235 711.992859,914.304810 717.750854,913.929871 
	C724.134583,913.514099 729.919128,908.961365 731.113586,903.895691 
	C732.717285,897.094360 730.730042,892.220886 724.569336,888.381836 
	C715.021057,884.099731 707.663025,885.591675 701.437073,893.072083 
	C697.622559,897.655212 698.297791,904.203735 703.203796,907.818542 
M682.541077,505.523193 
	C690.547302,512.483765 709.728516,510.976440 717.078247,504.403473 
	C722.932312,499.168121 722.358398,492.874725 714.992798,489.128540 
	C703.669495,483.369415 692.137024,483.072021 680.350281,490.292755 
	C674.027344,496.357849 674.606201,501.553040 682.541077,505.523193 
M256.599243,195.091385 
	C257.314117,195.982574 257.851471,197.333237 258.773102,197.689331 
	C264.199829,199.786087 269.585907,202.242279 275.226410,203.483932 
	C292.453156,207.276077 307.938965,203.999786 320.611176,190.902252 
	C330.416626,180.767685 330.236481,165.530090 320.753845,155.148239 
	C305.138702,138.052383 275.144531,136.572891 257.101715,150.635635 
	C249.960129,156.201859 244.460052,163.166931 244.937988,173.272629 
	C245.360764,182.212189 249.674225,188.880646 256.599243,195.091385 
M880.513245,668.041443 
	C887.188110,665.419678 894.253967,663.493713 900.446838,660.014099 
	C909.902893,654.701111 916.752136,641.533691 907.984558,629.444153 
	C905.267029,625.697021 901.540039,622.107788 897.468933,620.013611 
	C877.172058,609.572754 857.151794,610.214111 838.211670,623.484497 
	C827.994385,630.643188 825.902344,645.642151 834.234131,654.527100 
	C846.558777,667.669800 862.343628,670.799744 880.513245,668.041443 
M200.965897,768.908997 
	C205.188385,766.784790 210.280472,765.542480 213.483322,762.384216 
	C227.591599,748.472534 228.968842,726.660522 217.805405,710.739319 
	C208.082596,696.872620 191.916595,694.691162 180.266876,707.311279 
	C169.991348,718.442749 167.650681,731.623962 171.943848,745.910522 
	C176.610245,761.439148 186.137512,769.032043 200.965897,768.908997 
M599.683411,249.027100 
	C605.899963,251.369934 612.221741,251.753464 618.627686,249.940277 
	C629.043823,246.992020 636.513916,240.579758 639.739075,230.211365 
	C643.201416,219.080460 640.045471,209.252289 631.723572,201.294815 
	C620.430420,190.496185 600.483887,189.461105 588.043823,202.621262 
	C581.834473,209.190079 578.966553,217.053284 580.652954,226.630798 
	C582.615845,237.778473 589.264648,244.396255 599.683411,249.027100 
M732.894165,376.439606 
	C720.796204,374.885468 709.119812,376.595428 698.244751,382.005676 
	C682.628174,389.774811 681.678101,403.768555 696.572510,412.703583 
	C702.553101,416.291321 709.948547,418.100281 716.943237,419.294891 
	C730.692139,421.643036 744.122131,419.664215 755.710632,411.475677 
	C764.554016,405.226807 767.827271,393.800873 756.978638,385.432709 
	C750.080994,380.112213 742.237305,377.602722 732.894165,376.439606 
M489.826263,704.351074 
	C491.896393,699.724121 494.498688,695.255737 495.933472,690.439514 
	C499.716522,677.740540 500.092896,664.670349 497.818542,651.703613 
	C496.726440,645.477173 494.489685,639.348633 491.995636,633.506958 
	C490.316895,629.575134 486.981110,625.302002 482.360168,626.340942 
	C478.851074,627.129944 475.111969,630.350647 473.109802,633.521484 
	C470.549011,637.577087 469.182343,642.567383 468.094147,647.335876 
	C465.499084,658.707458 465.047546,670.308289 467.153412,681.765869 
	C468.327240,688.152283 470.268951,694.576416 473.002960,700.453979 
	C476.774017,708.561096 482.145752,709.642761 489.826263,704.351074 
M138.470642,437.961517 
	C136.784088,436.983429 135.210266,435.593292 133.392212,435.095947 
	C123.625938,432.424316 113.291748,437.525055 109.206421,447.972015 
	C103.551170,462.433563 104.381432,476.450867 114.972755,488.764984 
	C122.879059,497.957428 135.118591,496.468262 142.217239,487.677673 
	C148.686905,479.665985 150.732391,470.553589 149.881042,460.778961 
	C149.128326,452.136658 146.474701,444.031097 138.470642,437.961517 
M687.854004,642.468750 
	C680.640564,657.777100 680.913269,672.806030 690.126160,687.176208 
	C695.933533,696.234497 707.648376,696.194519 713.806274,687.454712 
	C723.463562,673.748352 723.442566,652.099487 713.758728,638.469604 
	C708.894409,631.623108 701.244812,630.072937 694.383301,634.971069 
	C691.922058,636.728149 690.161499,639.466736 687.854004,642.468750 
M494.475586,914.047607 
	C491.615845,923.727783 492.530945,932.984802 497.900879,941.594727 
	C504.568512,952.285522 515.473267,955.564331 524.951843,947.703430 
	C536.873169,937.816772 538.173096,917.007385 529.361938,905.059204 
	C524.890320,898.995422 518.965637,894.571472 510.752899,896.255371 
	C503.199066,897.804199 494.792114,908.099365 494.475586,914.047607 
M186.597763,368.999207 
	C190.388092,368.001801 194.539825,367.677826 197.898148,365.875458 
	C206.533844,361.240875 207.388718,351.288055 200.160904,344.665436 
	C193.145401,338.237335 180.273376,338.502228 173.282669,345.218567 
	C167.745087,350.538818 167.673599,356.779633 172.272156,362.909485 
	C175.794220,367.604370 180.816818,367.925751 186.597763,368.999207 
M384.092560,372.270538 
	C389.387970,380.154938 396.772491,377.220245 399.833740,370.445526 
	C404.240845,360.692291 404.587830,350.933655 399.046417,341.647888 
	C397.567230,339.169189 394.151520,336.439087 391.593262,336.407776 
	C389.043671,336.376587 385.496033,339.024719 384.050934,341.478577 
	C378.273193,351.289642 378.510010,361.486389 384.092560,372.270538 
M456.743439,112.492363 
	C459.799927,120.269989 466.267212,123.635139 473.557739,121.241356 
	C480.439392,118.981842 484.307892,112.643066 482.641632,106.356819 
	C480.748688,99.215164 473.323364,94.566162 466.248291,96.092926 
	C460.115662,97.416313 455.518555,104.737396 456.743439,112.492363 
M453.018860,831.563416 
	C450.501038,830.397339 448.089203,828.745667 445.442902,828.168091 
	C440.219147,827.027832 434.602142,830.578247 433.405243,835.228455 
	C432.360748,839.286438 434.888702,842.956604 440.258514,844.544067 
	C445.064606,845.965027 449.567657,844.916260 453.057709,841.281799 
	C455.666168,838.565552 455.627563,835.315552 453.018860,831.563416 
z"/>
<path fill="#682C15" opacity="1.000000" stroke="none" 
	d="
M256.333588,194.835266 
	C249.674225,188.880646 245.360764,182.212189 244.937988,173.272629 
	C244.460052,163.166931 249.960129,156.201859 257.101715,150.635635 
	C275.144531,136.572891 305.138702,138.052383 320.753845,155.148239 
	C330.236481,165.530090 330.416626,180.767685 320.611176,190.902252 
	C307.938965,203.999786 292.453156,207.276077 275.226410,203.483932 
	C269.585907,202.242279 264.199829,199.786087 258.773102,197.689331 
	C257.851471,197.333237 257.314117,195.982574 256.333588,194.835266 
z"/>
<path fill="#682C15" opacity="1.000000" stroke="none" 
	d="
M880.076416,668.108276 
	C862.343628,670.799744 846.558777,667.669800 834.234131,654.527100 
	C825.902344,645.642151 827.994385,630.643188 838.211670,623.484497 
	C857.151794,610.214111 877.172058,609.572754 897.468933,620.013611 
	C901.540039,622.107788 905.267029,625.697021 907.984558,629.444153 
	C916.752136,641.533691 909.902893,654.701111 900.446838,660.014099 
	C894.253967,663.493713 887.188110,665.419678 880.076416,668.108276 
z"/>
<path fill="#682C15" opacity="1.000000" stroke="none" 
	d="
M200.540344,768.945496 
	C186.137512,769.032043 176.610245,761.439148 171.943848,745.910522 
	C167.650681,731.623962 169.991348,718.442749 180.266876,707.311279 
	C191.916595,694.691162 208.082596,696.872620 217.805405,710.739319 
	C228.968842,726.660522 227.591599,748.472534 213.483322,762.384216 
	C210.280472,765.542480 205.188385,766.784790 200.540344,768.945496 
z"/>
<path fill="#682C15" opacity="1.000000" stroke="none" 
	d="
M599.290894,248.968018 
	C589.264648,244.396255 582.615845,237.778473 580.652954,226.630798 
	C578.966553,217.053284 581.834473,209.190079 588.043823,202.621262 
	C600.483887,189.461105 620.430420,190.496185 631.723572,201.294815 
	C640.045471,209.252289 643.201416,219.080460 639.739075,230.211365 
	C636.513916,240.579758 629.043823,246.992020 618.627686,249.940277 
	C612.221741,251.753464 605.899963,251.369934 599.290894,248.968018 
z"/>
<path fill="#682C15" opacity="1.000000" stroke="none" 
	d="
M733.299194,376.638306 
	C742.237305,377.602722 750.080994,380.112213 756.978638,385.432709 
	C767.827271,393.800873 764.554016,405.226807 755.710632,411.475677 
	C744.122131,419.664215 730.692139,421.643036 716.943237,419.294891 
	C709.948547,418.100281 702.553101,416.291321 696.572510,412.703583 
	C681.678101,403.768555 682.628174,389.774811 698.244751,382.005676 
	C709.119812,376.595428 720.796204,374.885468 733.299194,376.638306 
z"/>
<path fill="#682C15" opacity="1.000000" stroke="none" 
	d="
M489.553741,704.606323 
	C482.145752,709.642761 476.774017,708.561096 473.002960,700.453979 
	C470.268951,694.576416 468.327240,688.152283 467.153412,681.765869 
	C465.047546,670.308289 465.499084,658.707458 468.094147,647.335876 
	C469.182343,642.567383 470.549011,637.577087 473.109802,633.521484 
	C475.111969,630.350647 478.851074,627.129944 482.360168,626.340942 
	C486.981110,625.302002 490.316895,629.575134 491.995636,633.506958 
	C494.489685,639.348633 496.726440,645.477173 497.818542,651.703613 
	C500.092896,664.670349 499.716522,677.740540 495.933472,690.439514 
	C494.498688,695.255737 491.896393,699.724121 489.553741,704.606323 
z"/>
<path fill="#682C15" opacity="1.000000" stroke="none" 
	d="
M138.746750,438.211639 
	C146.474701,444.031097 149.128326,452.136658 149.881042,460.778961 
	C150.732391,470.553589 148.686905,479.665985 142.217239,487.677673 
	C135.118591,496.468262 122.879059,497.957428 114.972755,488.764984 
	C104.381432,476.450867 103.551170,462.433563 109.206421,447.972015 
	C113.291748,437.525055 123.625938,432.424316 133.392212,435.095947 
	C135.210266,435.593292 136.784088,436.983429 138.746750,438.211639 
z"/>
<path fill="#682C15" opacity="1.000000" stroke="none" 
	d="
M687.967529,642.113037 
	C690.161499,639.466736 691.922058,636.728149 694.383301,634.971069 
	C701.244812,630.072937 708.894409,631.623108 713.758728,638.469604 
	C723.442566,652.099487 723.463562,673.748352 713.806274,687.454712 
	C707.648376,696.194519 695.933533,696.234497 690.126160,687.176208 
	C680.913269,672.806030 680.640564,657.777100 687.967529,642.113037 
z"/>
<path fill="#682C15" opacity="1.000000" stroke="none" 
	d="
M494.660767,913.670532 
	C494.792114,908.099365 503.199066,897.804199 510.752899,896.255371 
	C518.965637,894.571472 524.890320,898.995422 529.361938,905.059204 
	C538.173096,917.007385 536.873169,937.816772 524.951843,947.703430 
	C515.473267,955.564331 504.568512,952.285522 497.900879,941.594727 
	C492.530945,932.984802 491.615845,923.727783 494.660767,913.670532 
z"/>
<path fill="#9D693C" opacity="1.000000" stroke="none" 
	d="
M283.955200,603.987732 
	C284.443909,602.779602 284.932617,601.571472 286.084900,600.168335 
	C287.493652,598.307983 288.238831,596.642639 288.984009,594.977234 
	C288.984009,594.977234 288.997559,595.000000 289.322754,595.138245 
	C290.590637,595.407654 292.124084,595.964905 292.384338,595.604004 
	C294.902435,592.112061 298.527863,593.186218 301.878967,592.958191 
	C303.276520,592.863098 304.642639,592.306458 306.023041,591.959656 
	C313.586914,595.317810 317.330750,602.254028 317.184784,610.467529 
	C317.066040,617.148071 317.276428,623.583557 312.921906,629.314453 
	C308.464996,635.180054 301.046173,637.516174 294.219849,633.960571 
	C293.619659,629.493347 290.748383,629.263489 287.900787,629.000000 
	C287.757568,628.173523 287.614380,627.347107 287.234619,625.881104 
	C286.656769,619.087402 286.396759,612.926453 285.891205,606.785767 
	C285.810577,605.806580 284.628204,604.918152 283.955200,603.987732 
z"/>
<path fill="#9D693C" opacity="1.000000" stroke="none" 
	d="
M680.958435,489.975952 
	C692.137024,483.072021 703.669495,483.369415 714.992798,489.128540 
	C722.358398,492.874725 722.932312,499.168121 717.078247,504.403473 
	C709.728516,510.976440 690.547302,512.483765 682.269897,504.905518 
	C681.849670,503.322418 682.053040,501.979431 681.491882,501.455658 
	C678.759705,498.905884 677.713928,496.647491 681.257507,493.823151 
	C681.821594,493.373535 681.090637,491.299164 680.958435,489.975952 
z"/>
<path fill="#9D693C" opacity="1.000000" stroke="none" 
	d="
M186.160568,368.996643 
	C180.816818,367.925751 175.794220,367.604370 172.272156,362.909485 
	C167.673599,356.779633 167.745087,350.538818 173.282669,345.218567 
	C180.273376,338.502228 193.145401,338.237335 200.160904,344.665436 
	C207.388718,351.288055 206.533844,361.240875 197.898148,365.875458 
	C194.539825,367.677826 190.388092,368.001801 186.160568,368.996643 
z"/>
<path fill="#682C15" opacity="1.000000" stroke="none" 
	d="
M383.975922,371.908325 
	C378.510010,361.486389 378.273193,351.289642 384.050934,341.478577 
	C385.496033,339.024719 389.043671,336.376587 391.593262,336.407776 
	C394.151520,336.439087 397.567230,339.169189 399.046417,341.647888 
	C404.587830,350.933655 404.240845,360.692291 399.833740,370.445526 
	C396.772491,377.220245 389.387970,380.154938 383.975922,371.908325 
z"/>
<path fill="#9D693C" opacity="1.000000" stroke="none" 
	d="
M725.023010,888.959351 
	C730.730042,892.220886 732.717285,897.094360 731.113586,903.895691 
	C729.919128,908.961365 724.134583,913.514099 717.750854,913.929871 
	C711.992859,914.304810 706.410278,913.753235 703.085022,907.078918 
	C702.830261,903.279785 701.677856,899.789246 702.756836,897.244934 
	C705.531128,890.702942 712.669739,887.988403 719.996460,889.427734 
	C721.580200,889.738831 723.342773,889.139343 725.023010,888.959351 
z"/>
<path fill="#9D693C" opacity="1.000000" stroke="none" 
	d="
M456.573273,112.132050 
	C455.518555,104.737396 460.115662,97.416313 466.248291,96.092926 
	C473.323364,94.566162 480.748688,99.215164 482.641632,106.356819 
	C484.307892,112.643066 480.439392,118.981842 473.557739,121.241356 
	C466.267212,123.635139 459.799927,120.269989 456.573273,112.132050 
z"/>
<path fill="#9D693C" opacity="1.000000" stroke="none" 
	d="
M453.269287,831.860291 
	C455.627563,835.315552 455.666168,838.565552 453.057709,841.281799 
	C449.567657,844.916260 445.064606,845.965027 440.258514,844.544067 
	C434.888702,842.956604 432.360748,839.286438 433.405243,835.228455 
	C434.602142,830.578247 440.219147,827.027832 445.442902,828.168091 
	C448.089203,828.745667 450.501038,830.397339 453.269287,831.860291 
z"/>
<path fill="#9D693C" opacity="1.000000" stroke="none" 
	d="
M724.796143,888.670593 
	C723.342773,889.139343 721.580200,889.738831 719.996460,889.427734 
	C712.669739,887.988403 705.531128,890.702942 702.756836,897.244934 
	C701.677856,899.789246 702.830261,903.279785 702.931030,906.778442 
	C698.297791,904.203735 697.622559,897.655212 701.437073,893.072083 
	C707.663025,885.591675 715.021057,884.099731 724.796143,888.670593 
z"/>
<path fill="#9D693C" opacity="1.000000" stroke="none" 
	d="
M283.670105,604.246338 
	C284.628204,604.918152 285.810577,605.806580 285.891205,606.785767 
	C286.396759,612.926453 286.656769,619.087402 286.998840,625.670105 
	C281.763824,624.111694 282.868927,619.003052 282.222412,615.182922 
	C281.647583,611.786499 282.925079,608.076538 283.670105,604.246338 
z"/>
<path fill="#9D693C" opacity="1.000000" stroke="none" 
	d="
M680.654358,490.134338 
	C681.090637,491.299164 681.821594,493.373535 681.257507,493.823151 
	C677.713928,496.647491 678.759705,498.905884 681.491882,501.455658 
	C682.053040,501.979431 681.849670,503.322418 681.999390,504.693634 
	C674.606201,501.553040 674.027344,496.357849 680.654358,490.134338 
z"/>
<path fill="#9D693C" opacity="1.000000" stroke="none" 
	d="
M305.777161,591.677490 
	C304.642639,592.306458 303.276520,592.863098 301.878967,592.958191 
	C298.527863,593.186218 294.902435,592.112061 292.384338,595.604004 
	C292.124084,595.964905 290.590637,595.407654 289.313629,595.125977 
	C293.854156,590.811829 299.103027,588.377197 305.777161,591.677490 
z"/>
<path fill="#9D693C" opacity="1.000000" stroke="none" 
	d="
M287.945129,629.349731 
	C290.748383,629.263489 293.619659,629.493347 293.984070,633.664429 
	C291.985138,632.597046 289.987305,631.148254 287.945129,629.349731 
z"/>
<path fill="#9D693C" opacity="1.000000" stroke="none" 
	d="
M288.712646,595.164795 
	C288.238831,596.642639 287.493652,598.307983 286.351318,599.978271 
	C286.783203,598.439514 287.612274,596.895996 288.712646,595.164795 
z"/>
</svg>